<?xml version="1.0" encoding="utf-8"?>
<!-- Generator: Adobe Illustrator 27.3.1, SVG Export Plug-In . SVG Version: 6.00 Build 0)  -->
<svg version="1.1" id="Layer_1" xmlns="http://www.w3.org/2000/svg" xmlns:xlink="http://www.w3.org/1999/xlink" x="0px" y="0px"
	 viewBox="0 0 64 64" style="enable-background:new 0 0 64 64;" xml:space="preserve">
<style type="text/css">
	.st0{fill:#5271FF;}
	.st1{fill:#00BF63;}
	.st2{fill:#FF5757;}
</style>
<path class="st0" d="M26.6,17.7c-1,0-1.8,0.8-1.8,1.8c0,1,0.8,1.7,1.8,1.7c1,0,1.8-0.8,1.8-1.7C28.3,18.5,27.6,17.7,26.6,17.7z"/>
<g>
	<g>
		<path class="st0" d="M42.8,11.4H25.1l15.7-5.7C41,5.6,41.1,5.4,41,5.2c-0.1-0.2-0.3-0.3-0.5-0.3l-17.7,6.5h-1.2
			c-0.9,0-1.7,0.9-1.7,1.8v12.2c0,0.9,0.8,1.6,1.7,1.6h21.2c0.9,0,1.7-0.6,1.7-1.6V13.2C44.5,12.3,43.7,11.4,42.8,11.4z M26.6,24
			C24.1,24,22,22,22,19.4c0-2.5,2.1-4.6,4.6-4.6s4.6,2.1,4.6,4.6C31.2,22,29.2,24,26.6,24z M34.3,24.1c0,0.2-0.2,0.4-0.4,0.4
			c-0.2,0-0.4-0.2-0.4-0.4v-5c0-0.2,0.2-0.4,0.4-0.4c0.2,0,0.4,0.2,0.4,0.4V24.1z M36.2,24.1c0,0.2-0.2,0.4-0.4,0.4
			c-0.2,0-0.4-0.2-0.4-0.4v-5c0-0.2,0.2-0.4,0.4-0.4c0.2,0,0.4,0.2,0.4,0.4V24.1z M38.2,24.1c0,0.2-0.2,0.4-0.4,0.4
			c-0.2,0-0.4-0.2-0.4-0.4v-5c0-0.2,0.2-0.4,0.4-0.4c0.2,0,0.4,0.2,0.4,0.4V24.1z M40.1,24.1c0,0.2-0.2,0.4-0.4,0.4
			c-0.2,0-0.4-0.2-0.4-0.4v-5c0-0.2,0.2-0.4,0.4-0.4c0.2,0,0.4,0.2,0.4,0.4V24.1z M42,24.1c0,0.2-0.2,0.4-0.4,0.4
			c-0.2,0-0.4-0.2-0.4-0.4v-5c0-0.2,0.2-0.4,0.4-0.4c0.2,0,0.4,0.2,0.4,0.4V24.1z M42,17.2c0,0.1-0.1,0.2-0.2,0.2h-8.1
			c-0.1,0-0.2-0.1-0.2-0.2v-2.3c0-0.1,0.1-0.2,0.2-0.2h8.1c0.1,0,0.2,0.1,0.2,0.2V17.2z"/>
	</g>
</g>
<path class="st1" d="M26.6,47.1c-1,0-1.8,0.8-1.8,1.7c0,1,0.8,1.8,1.8,1.8c1,0,1.8-0.8,1.8-1.8C28.3,47.9,27.6,47.1,26.6,47.1z"/>
<g>
	<g>
		<path class="st1" d="M42.8,40.8H25.1l15.7-5.7c0.2-0.1,0.3-0.2,0.2-0.5c-0.1-0.2-0.3-0.3-0.5-0.3l-17.7,6.5h-1.2
			c-0.9,0-1.7,0.9-1.7,1.8v12.1c0,0.9,0.8,1.6,1.7,1.6h21.2c0.9,0,1.7-0.6,1.7-1.6V42.7C44.5,41.7,43.7,40.8,42.8,40.8z M26.6,53.5
			c-2.5,0-4.6-2.1-4.6-4.6c0-2.5,2.1-4.6,4.6-4.6s4.6,2.1,4.6,4.6C31.2,51.4,29.2,53.5,26.6,53.5z M34.3,53.5c0,0.2-0.2,0.4-0.4,0.4
			c-0.2,0-0.4-0.2-0.4-0.4v-5c0-0.2,0.2-0.4,0.4-0.4c0.2,0,0.4,0.2,0.4,0.4V53.5z M36.2,53.5c0,0.2-0.2,0.4-0.4,0.4
			c-0.2,0-0.4-0.2-0.4-0.4v-5c0-0.2,0.2-0.4,0.4-0.4c0.2,0,0.4,0.2,0.4,0.4V53.5z M38.2,53.5c0,0.2-0.2,0.4-0.4,0.4
			c-0.2,0-0.4-0.2-0.4-0.4v-5c0-0.2,0.2-0.4,0.4-0.4c0.2,0,0.4,0.2,0.4,0.4V53.5z M40.1,53.5c0,0.2-0.2,0.4-0.4,0.4
			c-0.2,0-0.4-0.2-0.4-0.4v-5c0-0.2,0.2-0.4,0.4-0.4c0.2,0,0.4,0.2,0.4,0.4V53.5z M42,53.5c0,0.2-0.2,0.4-0.4,0.4
			c-0.2,0-0.4-0.2-0.4-0.4v-5c0-0.2,0.2-0.4,0.4-0.4c0.2,0,0.4,0.2,0.4,0.4V53.5z M42,46.6c0,0.1-0.1,0.2-0.2,0.2h-8.1
			c-0.1,0-0.2-0.1-0.2-0.2v-2.3c0-0.1,0.1-0.2,0.2-0.2h8.1c0.1,0,0.2,0.1,0.2,0.2V46.6z"/>
	</g>
</g>
<g>
	<g>
		<g>
			<g>
				<g>
					<g>
						<path class="st2" d="M15.5,53.1c0.2,0.2,0.6,0.2,0.7-0.1l2-2.4c0.2-0.2,0.2-0.6-0.1-0.7l-3.6-3.1c-6.6-5.6-7.5-15.6-1.9-22.2
							c0.2-0.2,0.5-0.2,0.7-0.1l2.6,2.2c0.1,0.1,0.2,0.1,0.3,0c0.1,0,0.1-0.1,0.2-0.2l0.8-10.5c0,0,0-0.1,0-0.1c0,0-0.1,0-0.1,0
							L6.9,18.5c-0.1,0-0.1,0-0.1,0.1c0,0,0,0.1-0.1,0.1c0,0,0,0.2,0.1,0.3l2.6,2.2c0.2,0.2,0.2,0.5,0.1,0.7c-7.1,8.4-6,21,2.4,28.1
							L15.5,53.1"/>
					</g>
				</g>
			</g>
		</g>
	</g>
</g>
<g>
	<g>
		<g>
			<g>
				<g>
					<g>
						<path class="st2" d="M48.5,15.3c-0.2-0.2-0.6-0.2-0.7,0.1l-2,2.4c-0.2,0.2-0.2,0.6,0.1,0.7l3.6,3.1c6.6,5.6,7.5,15.6,1.9,22.2
							c-0.2,0.2-0.5,0.2-0.7,0.1l-2.6-2.2c-0.1-0.1-0.2-0.1-0.3-0.1c-0.1,0-0.1,0.1-0.1,0.2l-0.8,10.5c0,0,0,0,0,0c0,0,0,0.1,0,0.1
							c0,0,0,0,0.1,0l10.2-2.5c0.1,0,0.1,0,0.1-0.1c0,0,0-0.1,0.1-0.1c0-0.1,0-0.2-0.1-0.3l-2.6-2.2c-0.2-0.2-0.2-0.5-0.1-0.7
							c7.1-8.4,6-21-2.4-28.1L48.5,15.3"/>
					</g>
				</g>
			</g>
		</g>
	</g>
</g>
</svg>
